<svg xmlns="http://www.w3.org/2000/svg" viewBox="0 0 800 600" role="img">
  <rect width="800" height="600" fill="#CDEBDD"/>
  <circle cx="400" cy="300" r="270" fill="#FFFFFF" opacity=".38"/>
  <circle cx="692.0" cy="300.0" r="4" fill="#1A2A8C55"/><circle cx="689.5" cy="338.1" r="4" fill="#1A2A8C55"/><circle cx="682.1" cy="375.6" r="4" fill="#1A2A8C55"/><circle cx="669.8" cy="411.7" r="4" fill="#1A2A8C55"/><circle cx="652.9" cy="446.0" r="4" fill="#1A2A8C55"/><circle cx="631.7" cy="477.8" r="4" fill="#1A2A8C55"/><circle cx="606.5" cy="506.5" r="4" fill="#1A2A8C55"/><circle cx="577.8" cy="531.7" r="4" fill="#1A2A8C55"/><circle cx="546.0" cy="552.9" r="4" fill="#1A2A8C55"/><circle cx="511.7" cy="569.8" r="4" fill="#1A2A8C55"/><circle cx="475.6" cy="582.1" r="4" fill="#1A2A8C55"/><circle cx="438.1" cy="589.5" r="4" fill="#1A2A8C55"/><circle cx="400.0" cy="592.0" r="4" fill="#1A2A8C55"/><circle cx="361.9" cy="589.5" r="4" fill="#1A2A8C55"/><circle cx="324.4" cy="582.1" r="4" fill="#1A2A8C55"/><circle cx="288.3" cy="569.8" r="4" fill="#1A2A8C55"/><circle cx="254.0" cy="552.9" r="4" fill="#1A2A8C55"/><circle cx="222.2" cy="531.7" r="4" fill="#1A2A8C55"/><circle cx="193.5" cy="506.5" r="4" fill="#1A2A8C55"/><circle cx="168.3" cy="477.8" r="4" fill="#1A2A8C55"/><circle cx="147.1" cy="446.0" r="4" fill="#1A2A8C55"/><circle cx="130.2" cy="411.7" r="4" fill="#1A2A8C55"/><circle cx="117.9" cy="375.6" r="4" fill="#1A2A8C55"/><circle cx="110.5" cy="338.1" r="4" fill="#1A2A8C55"/><circle cx="108.0" cy="300.0" r="4" fill="#1A2A8C55"/><circle cx="110.5" cy="261.9" r="4" fill="#1A2A8C55"/><circle cx="117.9" cy="224.4" r="4" fill="#1A2A8C55"/><circle cx="130.2" cy="188.3" r="4" fill="#1A2A8C55"/><circle cx="147.1" cy="154.0" r="4" fill="#1A2A8C55"/><circle cx="168.3" cy="122.2" r="4" fill="#1A2A8C55"/><circle cx="193.5" cy="93.5" r="4" fill="#1A2A8C55"/><circle cx="222.2" cy="68.3" r="4" fill="#1A2A8C55"/><circle cx="254.0" cy="47.1" r="4" fill="#1A2A8C55"/><circle cx="288.3" cy="30.2" r="4" fill="#1A2A8C55"/><circle cx="324.4" cy="17.9" r="4" fill="#1A2A8C55"/><circle cx="361.9" cy="10.5" r="4" fill="#1A2A8C55"/><circle cx="400.0" cy="8.0" r="4" fill="#1A2A8C55"/><circle cx="438.1" cy="10.5" r="4" fill="#1A2A8C55"/><circle cx="475.6" cy="17.9" r="4" fill="#1A2A8C55"/><circle cx="511.7" cy="30.2" r="4" fill="#1A2A8C55"/><circle cx="546.0" cy="47.1" r="4" fill="#1A2A8C55"/><circle cx="577.8" cy="68.3" r="4" fill="#1A2A8C55"/><circle cx="606.5" cy="93.5" r="4" fill="#1A2A8C55"/><circle cx="631.7" cy="122.2" r="4" fill="#1A2A8C55"/><circle cx="652.9" cy="154.0" r="4" fill="#1A2A8C55"/><circle cx="669.8" cy="188.3" r="4" fill="#1A2A8C55"/><circle cx="682.1" cy="224.4" r="4" fill="#1A2A8C55"/><circle cx="689.5" cy="261.9" r="4" fill="#1A2A8C55"/>
  <g transform="translate(400 300) scale(1.22)">
    <g transform="translate(-160 30) rotate(-14)">
      <rect x="-44" y="-100" width="88" height="200" rx="40" fill="#E6B675" stroke="#1A2A8C" stroke-width="6" stroke-linejoin="round" stroke-linecap="round"/>
      <rect x="-26" y="-74" width="14" height="90" rx="7" fill="#FFFFFF66"/>
      <circle cx="-24" cy="-70" r="3.5" fill="#B7793E"/><circle cx="-7" cy="-41" r="3.5" fill="#B7793E"/><circle cx="10" cy="-12" r="3.5" fill="#B7793E"/><circle cx="-23" cy="17" r="3.5" fill="#B7793E"/><circle cx="-6" cy="46" r="3.5" fill="#B7793E"/><circle cx="11" cy="75" r="3.5" fill="#B7793E"/><circle cx="-22" cy="-46" r="3.5" fill="#B7793E"/><circle cx="-5" cy="-17" r="3.5" fill="#B7793E"/><circle cx="12" cy="12" r="3.5" fill="#B7793E"/><circle cx="-21" cy="41" r="3.5" fill="#B7793E"/><circle cx="-4" cy="70" r="3.5" fill="#B7793E"/><circle cx="13" cy="-51" r="3.5" fill="#B7793E"/><circle cx="-20" cy="-22" r="3.5" fill="#B7793E"/><circle cx="-3" cy="7" r="3.5" fill="#B7793E"/>
    </g>
    <g transform="translate(-80 10) rotate(-6)">
      <rect x="-44" y="-100" width="88" height="200" rx="40" fill="#E6B675" stroke="#1A2A8C" stroke-width="6" stroke-linejoin="round" stroke-linecap="round"/>
      <rect x="-26" y="-74" width="14" height="90" rx="7" fill="#FFFFFF66"/>
      <circle cx="-24" cy="-70" r="3.5" fill="#B7793E"/><circle cx="-7" cy="-41" r="3.5" fill="#B7793E"/><circle cx="10" cy="-12" r="3.5" fill="#B7793E"/><circle cx="-23" cy="17" r="3.5" fill="#B7793E"/><circle cx="-6" cy="46" r="3.5" fill="#B7793E"/><circle cx="11" cy="75" r="3.5" fill="#B7793E"/><circle cx="-22" cy="-46" r="3.5" fill="#B7793E"/><circle cx="-5" cy="-17" r="3.5" fill="#B7793E"/><circle cx="12" cy="12" r="3.5" fill="#B7793E"/><circle cx="-21" cy="41" r="3.5" fill="#B7793E"/><circle cx="-4" cy="70" r="3.5" fill="#B7793E"/><circle cx="13" cy="-51" r="3.5" fill="#B7793E"/><circle cx="-20" cy="-22" r="3.5" fill="#B7793E"/><circle cx="-3" cy="7" r="3.5" fill="#B7793E"/>
    </g>
    <g transform="translate(0 20) rotate(2)">
      <rect x="-44" y="-100" width="88" height="200" rx="40" fill="#E6B675" stroke="#1A2A8C" stroke-width="6" stroke-linejoin="round" stroke-linecap="round"/>
      <rect x="-26" y="-74" width="14" height="90" rx="7" fill="#FFFFFF66"/>
      <circle cx="-24" cy="-70" r="3.5" fill="#B7793E"/><circle cx="-7" cy="-41" r="3.5" fill="#B7793E"/><circle cx="10" cy="-12" r="3.5" fill="#B7793E"/><circle cx="-23" cy="17" r="3.5" fill="#B7793E"/><circle cx="-6" cy="46" r="3.5" fill="#B7793E"/><circle cx="11" cy="75" r="3.5" fill="#B7793E"/><circle cx="-22" cy="-46" r="3.5" fill="#B7793E"/><circle cx="-5" cy="-17" r="3.5" fill="#B7793E"/><circle cx="12" cy="12" r="3.5" fill="#B7793E"/><circle cx="-21" cy="41" r="3.5" fill="#B7793E"/><circle cx="-4" cy="70" r="3.5" fill="#B7793E"/><circle cx="13" cy="-51" r="3.5" fill="#B7793E"/><circle cx="-20" cy="-22" r="3.5" fill="#B7793E"/><circle cx="-3" cy="7" r="3.5" fill="#B7793E"/>
    </g>
    <g transform="translate(80 8) rotate(8)">
      <rect x="-44" y="-100" width="88" height="200" rx="40" fill="#E6B675" stroke="#1A2A8C" stroke-width="6" stroke-linejoin="round" stroke-linecap="round"/>
      <rect x="-26" y="-74" width="14" height="90" rx="7" fill="#FFFFFF66"/>
      <circle cx="-24" cy="-70" r="3.5" fill="#B7793E"/><circle cx="-7" cy="-41" r="3.5" fill="#B7793E"/><circle cx="10" cy="-12" r="3.5" fill="#B7793E"/><circle cx="-23" cy="17" r="3.5" fill="#B7793E"/><circle cx="-6" cy="46" r="3.5" fill="#B7793E"/><circle cx="11" cy="75" r="3.5" fill="#B7793E"/><circle cx="-22" cy="-46" r="3.5" fill="#B7793E"/><circle cx="-5" cy="-17" r="3.5" fill="#B7793E"/><circle cx="12" cy="12" r="3.5" fill="#B7793E"/><circle cx="-21" cy="41" r="3.5" fill="#B7793E"/><circle cx="-4" cy="70" r="3.5" fill="#B7793E"/><circle cx="13" cy="-51" r="3.5" fill="#B7793E"/><circle cx="-20" cy="-22" r="3.5" fill="#B7793E"/><circle cx="-3" cy="7" r="3.5" fill="#B7793E"/>
    </g>
    <g transform="translate(160 30) rotate(15)">
      <rect x="-44" y="-100" width="88" height="200" rx="40" fill="#E6B675" stroke="#1A2A8C" stroke-width="6" stroke-linejoin="round" stroke-linecap="round"/>
      <rect x="-26" y="-74" width="14" height="90" rx="7" fill="#FFFFFF66"/>
      <circle cx="-24" cy="-70" r="3.5" fill="#B7793E"/><circle cx="-7" cy="-41" r="3.5" fill="#B7793E"/><circle cx="10" cy="-12" r="3.5" fill="#B7793E"/><circle cx="-23" cy="17" r="3.5" fill="#B7793E"/><circle cx="-6" cy="46" r="3.5" fill="#B7793E"/><circle cx="11" cy="75" r="3.5" fill="#B7793E"/><circle cx="-22" cy="-46" r="3.5" fill="#B7793E"/><circle cx="-5" cy="-17" r="3.5" fill="#B7793E"/><circle cx="12" cy="12" r="3.5" fill="#B7793E"/><circle cx="-21" cy="41" r="3.5" fill="#B7793E"/><circle cx="-4" cy="70" r="3.5" fill="#B7793E"/><circle cx="13" cy="-51" r="3.5" fill="#B7793E"/><circle cx="-20" cy="-22" r="3.5" fill="#B7793E"/><circle cx="-3" cy="7" r="3.5" fill="#B7793E"/>
    </g><ellipse cx="-30" cy="190" rx="26" ry="18" fill="#D9A15D" stroke="#1A2A8C" stroke-width="5" stroke-linejoin="round" stroke-linecap="round" transform="rotate(-20 -30 190)"/>
     <ellipse cx="40" cy="196" rx="26" ry="18" fill="#D9A15D" stroke="#1A2A8C" stroke-width="5" stroke-linejoin="round" stroke-linecap="round" transform="rotate(25 40 196)"/></g>
</svg>
